<?xml version="1.0" encoding="UTF-8" standalone="no"?>
<svg
   xmlns:dc="http://purl.org/dc/elements/1.1/"
   xmlns:cc="http://creativecommons.org/ns#"
   xmlns:rdf="http://www.w3.org/1999/02/22-rdf-syntax-ns#"
   xmlns:svg="http://www.w3.org/2000/svg"
   xmlns="http://www.w3.org/2000/svg"
   viewBox="0 0 1333.3333 1333.3333"
   height="1333.3333"
   width="1333.3333"
   xml:space="preserve"
   id="svg2"
   version="1.1"><metadata
     id="metadata8"><rdf:RDF><cc:Work
         rdf:about=""><dc:format>image/svg+xml</dc:format><dc:type
           rdf:resource="http://purl.org/dc/dcmitype/StillImage" /></cc:Work></rdf:RDF></metadata><defs
     id="defs6"><clipPath
       id="clipPath18"
       clipPathUnits="userSpaceOnUse"><path
         id="path16"
         d="M 0,1000 H 1000 V 0 H 0 Z" /></clipPath></defs><g
     transform="matrix(1.3333333,0,0,-1.3333333,0,1333.3333)"
     id="g10"><g
       id="g12"><g
         clip-path="url(#clipPath18)"
         id="g14"><g
           transform="translate(488.6826,202.8145)"
           id="g20"><path
             id="path22"
             style="fill:#00aeed;fill-opacity:1;fill-rule:evenodd;stroke:none"
             d="m 0,0 c 0.895,178.992 1.79,357.985 2.685,536.978 20.961,9.465 28.423,12.659 51.012,17.003 -4.043,10.985 15.246,10.614 33.115,11.635 -33.358,36.423 -29.27,79.322 25.058,76.071 32.442,-2.462 26.567,-40.727 24.164,-64.437 97.503,-6.147 170.154,-74.909 199.129,-166.238 35.892,14.37 74.512,1.418 68.357,-42.337 -5.871,-41.734 -40.904,-32.883 -70.371,-9.347 -6.834,-43.285 -9.494,-86.421 -25.729,-98.893 -9.895,-19.789 -7.686,-34.806 -28.192,-40.274 C 239.94,175.606 189.083,166.11 143.603,115.29 95.173,61.174 65.735,44.12 0,0" /></g><g
           transform="translate(592.5566,844.6377)"
           id="g24"><path
             id="path26"
             style="fill:#6acff4;fill-opacity:1;fill-rule:evenodd;stroke:none"
             d="m 0,0 c 2.536,0.07 5.195,0.032 7.996,-0.136 32.442,-2.463 26.567,-40.727 24.164,-64.437 97.503,-6.148 170.154,-74.909 199.129,-166.239 35.892,14.371 74.512,1.419 68.357,-42.336 -1.056,-7.509 -3.061,-13.373 -5.803,-17.815 -2.039,5.697 -3.325,11.359 -3.704,16.376 -2.375,31.452 -41.312,37.487 -54.592,31.912 -25.216,-10.587 -28.274,21.404 -36.924,38.713 -31.901,63.833 -108.888,124.715 -181.125,124.715 -0.844,0 8.762,57.18 -9.952,73.061 C 4.894,-3.936 2.387,-1.885 0,0" /></g><g
           transform="translate(817.0293,528.8979)"
           id="g28"><path
             id="path30"
             style="fill:#008dc0;fill-opacity:1;fill-rule:evenodd;stroke:none"
             d="m 0,0 c -4.338,-30.425 -8.919,-56.424 -20.927,-65.649 -9.894,-19.788 -7.685,-34.806 -28.192,-40.273 -39.287,-44.555 -90.145,-54.051 -135.625,-104.871 -41.684,-46.578 -69.299,-65.701 -118.097,-98.255 l 6.489,221.696 c 7.038,-53.586 48.856,-48.948 85.616,-51.831 48.031,-3.766 89.75,30.379 133.937,43.47 24.543,7.271 49.238,50.051 53.34,73.796 C -23.131,-22.354 -19.576,3.283 0,0" /></g><g
           transform="translate(484.6553,202.8145)"
           id="g32"><path
             id="path34"
             style="fill:#008dc0;fill-opacity:1;fill-rule:evenodd;stroke:none"
             d="m 0,0 c 0.895,178.992 1.79,357.985 2.685,536.978 14.385,6.496 22.414,10.038 33.337,13.026 V 323.663 c 0.016,-0.092 0.017,-0.209 0,-0.357 v -27.629 c 0,-21.024 10.747,-31.773 30.244,-38.151 1.721,-0.563 -17.976,-1.98 -30.244,9.891 V 24.069 C 25.203,16.805 13.35,8.961 0,0" /></g><g
           transform="translate(564.8252,750.8296)"
           id="g36"><path
             id="path38"
             style="fill:#008dc0;fill-opacity:1;fill-rule:evenodd;stroke:none"
             d="m 0,0 c 42.507,0 76.966,-34.459 76.966,-76.966 0,-42.507 -34.459,-76.967 -76.966,-76.967 -24.935,0 -47.096,11.861 -61.16,30.244 v 93.445 C -47.096,-11.861 -24.935,0 0,0" /></g><g
           transform="translate(489.2417,925.5503)"
           id="g40"><path
             id="path42"
             style="fill:#00aeed;fill-opacity:1;fill-rule:evenodd;stroke:none"
             d="m 0,0 v 0 c 9.722,0 17.675,-7.954 17.675,-17.675 v -815.75 c 0,-9.722 -7.953,-17.676 -17.675,-17.676 v 0 c -9.721,0 -17.675,7.954 -17.675,17.676 v 815.75 C -17.675,-7.954 -9.721,0 0,0" /></g><g
           transform="translate(506.917,753.1748)"
           id="g44"><path
             id="path46"
             style="fill:#00161e;fill-opacity:1;fill-rule:evenodd;stroke:none"
             d="m 0,0 c 2.488,0.996 4.904,1.903 7.377,2.757 6.364,2.199 12.782,3.917 21.362,5.703 0.578,4.477 4.045,7.431 9.421,9.41 4.717,1.735 11.163,2.395 18.145,2.814 -6.846,9.357 -11.44,18.914 -13.6,27.926 -2.194,9.15 -1.92,17.814 0.991,25.297 3.007,7.731 8.712,14.063 17.282,18.253 8.289,4.051 19.251,6.041 33.014,5.217 h 0.095 c 31.218,-2.37 33.188,-30.316 31.306,-55.128 -0.242,-3.168 -0.58,-6.536 -0.92,-9.794 46.11,-4.19 86.614,-22.106 119.564,-49.614 34.821,-29.069 61.159,-68.833 76.711,-114.385 11.192,3.567 22.459,4.684 32.582,3.26 7.885,-1.109 15.124,-3.76 21.182,-7.994 6.198,-4.333 11.092,-10.26 14.119,-17.817 3.122,-7.799 4.225,-17.268 2.657,-28.421 -1.449,-10.301 -4.582,-17.997 -8.962,-23.48 -3.711,-4.646 -8.253,-7.692 -13.393,-9.368 -4.937,-1.609 -10.336,-1.904 -16,-1.108 -10.599,1.492 -22.297,6.893 -33.538,14.581 -0.682,-4.688 -1.356,-9.505 -2.019,-14.249 -4.832,-34.568 -9.131,-65.307 -23.346,-77.643 -2.326,-4.855 -3.968,-9.554 -5.462,-13.834 -4.595,-13.165 -8.028,-22.991 -24.204,-27.92 -19.374,-21.522 -41.161,-34.876 -63.717,-48.701 -23.564,-14.444 -47.999,-29.419 -70.771,-54.866 C 86.001,-488.13 57.658,-507.023 4.732,-542.303 L 0,-545.457 v 14.567 c 50.866,33.91 78.614,52.647 120.86,99.853 24.002,26.82 49.188,42.256 73.477,57.142 22.186,13.599 43.601,26.725 62.101,47.706 l 1.208,1.369 1.805,0.481 c 11.525,3.072 14.138,10.556 17.682,20.708 1.716,4.916 3.614,10.352 6.642,16.409 l 0.635,1.27 1.098,0.843 c 11.191,8.597 15.266,37.744 19.863,70.63 1.078,7.709 2.185,15.623 3.566,24.372 l 3.193,22.837 6.557,-19.018 c 12.075,-9.644 24.959,-16.638 35.907,-18.178 3.885,-0.547 7.469,-0.384 10.59,0.633 2.917,0.95 5.509,2.7 7.652,5.382 3.073,3.847 5.321,9.593 6.447,17.597 1.261,8.965 0.461,16.359 -1.898,22.25 -2.115,5.285 -5.513,9.412 -9.801,12.409 -4.43,3.096 -9.874,5.056 -15.915,5.906 -9.919,1.395 -21.31,-0.208 -32.486,-4.683 l -13.675,-5.338 5.632,9.135 C 296.587,-95.303 270.792,-55.291 236.255,-26.458 203.739,0.686 163.43,17.939 117.42,20.84 l -7.174,-4.527 1.527,11.17 c 0.194,1.908 0.294,2.857 0.406,3.913 0.379,3.581 0.784,7.418 1.113,11.754 1.449,19.097 0.393,40.571 -20.106,42.127 v 0.006 C 81.626,85.963 72.726,84.438 66.293,81.293 60.627,78.523 56.899,74.451 54.989,69.542 52.982,64.383 52.853,58.167 54.473,51.41 56.907,41.252 63.219,30.058 73.037,19.337 L 81.647,9.935 68.909,9.206 C 67.313,9.115 65.259,9.015 63.228,8.916 54.868,8.51 46.778,8.116 42.336,6.481 41.547,6.191 41.077,5.928 41.157,5.709 l 2.464,-6.693 -7.018,-1.35 C 25.538,-4.461 18.261,-6.279 11.315,-8.678 7.734,-9.915 4.113,-11.356 0,-13.115 Z" /></g><g
           transform="translate(568.0781,761.5547)"
           id="g48"><path
             id="path50"
             style="fill:#ffffff;fill-opacity:1;fill-rule:evenodd;stroke:none"
             d="m 0,0 c 42.507,0 76.966,-34.459 76.966,-76.966 0,-42.507 -34.459,-76.966 -76.966,-76.966 -24.935,0 -47.096,11.86 -61.161,30.244 v 93.444 C -47.096,-11.86 -24.935,0 0,0" /></g><g
           transform="translate(597.3086,592.4585)"
           id="g52"><path
             id="path54"
             style="fill:#00161e;fill-opacity:1;fill-rule:evenodd;stroke:none"
             d="m 0,0 c 12.784,13.821 52.11,-15.952 37.812,-31.771 15.937,-29.93 17.344,-38.892 -9.397,-60.187 -22.97,-16.163 -62.622,-39.691 -89.72,-23.493 -20.621,17.249 -6.316,45.063 4.699,66.228 C -53.977,-21.208 -48.146,17.952 0,0" /></g><g
           transform="translate(567.3271,728.8838)"
           id="g56"><path
             id="path58"
             style="fill:#801414;fill-opacity:1;fill-rule:evenodd;stroke:none"
             d="m 0,0 c -24.22,0 -43.853,-19.634 -43.853,-43.853 0,-24.219 19.633,-43.853 43.853,-43.853 24.219,0 43.853,19.634 43.853,43.853 C 43.853,-19.634 24.219,0 0,0 m 0,33.114 c 42.507,0 76.966,-34.46 76.966,-76.967 0,-42.507 -34.459,-76.966 -76.966,-76.966 -24.494,0 -46.313,11.443 -60.41,29.274 V 3.84 C -46.313,21.67 -24.494,33.114 0,33.114" /></g><g
           transform="translate(520.6777,623.812)"
           id="g60"><path
             id="path62"
             style="fill:#550d0d;fill-opacity:1;fill-rule:evenodd;stroke:none"
             d="m 0,0 c -5.133,3.917 -9.758,8.463 -13.761,13.526 v 95.386 c 4.003,5.063 8.628,9.609 13.761,13.526 z" /></g><g
           transform="translate(567.3271,761.9976)"
           id="g64"><path
             id="path66"
             style="fill:#984141;fill-opacity:1;fill-rule:evenodd;stroke:none"
             d="m 0,0 c 42.507,0 76.966,-34.459 76.966,-76.967 0,-10.307 -2.031,-20.138 -5.707,-29.123 L 61.193,-119.308 C 81.183,-51.268 36.21,0.651 -27.602,-10.331 l 9.559,8.203 C -12.256,-0.738 -6.214,0 0,0" /></g><g
           transform="translate(594.8994,712.604)"
           id="g68"><path
             id="path70"
             style="fill:#00161e;fill-opacity:1;fill-rule:evenodd;stroke:none"
             d="M 0,0 C -7.056,7.056 -16.805,11.421 -27.572,11.421 -38.34,11.421 -48.09,7.056 -55.146,0 c -7.055,-7.056 -11.42,-16.806 -11.42,-27.573 0,-10.768 4.365,-20.517 11.42,-27.573 7.056,-7.056 16.806,-11.42 27.574,-11.42 10.767,0 20.516,4.364 27.573,11.42 7.056,7.056 11.42,16.805 11.42,27.573 C 11.421,-16.806 7.057,-7.056 0,0 m -27.572,21.139 c -13.451,0 -25.629,-5.453 -34.445,-14.268 -8.815,-8.815 -14.267,-20.994 -14.267,-34.444 0,-13.451 5.452,-25.629 14.267,-34.444 8.816,-8.815 20.994,-14.268 34.445,-14.268 13.451,0 25.629,5.453 34.444,14.268 8.815,8.815 14.268,20.993 14.268,34.444 0,13.45 -5.453,25.629 -14.269,34.444 -8.814,8.815 -20.992,14.268 -34.443,14.268 m 0,33.113 c 22.594,0 43.051,-9.159 57.858,-23.966 14.808,-14.807 23.967,-35.265 23.967,-57.859 0,-22.594 -9.159,-43.052 -23.967,-57.859 -14.807,-14.807 -35.264,-23.966 -57.858,-23.966 -22.595,0 -43.052,9.159 -57.859,23.966 -0.87,0.87 -1.72,1.762 -2.551,2.67 v 15.804 c 2.737,-4.19 5.898,-8.079 9.421,-11.603 13.049,-13.048 31.077,-21.119 50.989,-21.119 19.912,0 37.939,8.071 50.987,21.119 13.049,13.049 21.12,31.076 21.12,50.988 0,19.912 -8.071,37.939 -21.12,50.988 -13.048,13.048 -31.075,21.119 -50.987,21.119 -19.912,0 -37.94,-8.071 -50.989,-21.119 -3.523,-3.524 -6.684,-7.413 -9.421,-11.602 v 15.803 c 0.831,0.909 1.681,1.8 2.551,2.67 14.807,14.807 35.264,23.966 57.859,23.966" /></g><g
           transform="translate(567.3271,694.8755)"
           id="g72"><path
             id="path74"
             style="fill:#550d0d;fill-opacity:1;fill-rule:evenodd;stroke:none"
             d="m 0,0 c -5.437,0 -9.846,-4.407 -9.846,-9.845 0,-5.437 4.409,-9.844 9.846,-9.844 5.437,0 9.845,4.407 9.845,9.844 C 9.845,-4.407 5.437,0 0,0 m -0.132,-21.539 c -10.031,-6.692 -20.062,-13.385 -30.094,-20.078 -6.834,6.827 -11.483,14.751 -12.984,24.251 10.934,4.532 21.867,9.063 32.801,13.595 l -4.02,35.35 c 9.53,3.382 18.988,3.47 28.367,-0.008 C 12.532,19.623 11.125,7.675 9.718,-4.273 20.835,-8.896 31.952,-13.519 43.068,-18.142 41.55,-28.105 36.522,-35.818 29.525,-42.269 Z" /></g><g
           transform="translate(570.8525,688.5566)"
           id="g76"><path
             id="path78"
             style="fill:#00161e;fill-opacity:1;fill-rule:evenodd;stroke:none"
             d="m 0,0 c -0.901,0.902 -2.149,1.46 -3.525,1.46 -1.377,0 -2.624,-0.558 -3.527,-1.46 -0.901,-0.901 -1.46,-2.149 -1.46,-3.526 0,-1.376 0.559,-2.624 1.46,-3.526 0.903,-0.902 2.15,-1.46 3.527,-1.46 1.376,0 2.624,0.558 3.525,1.46 0.901,0.902 1.46,2.15 1.46,3.526 C 1.46,-2.149 0.901,-0.901 0,0 M 33.977,-14.761 11.079,-5.24 c -0.392,-3.375 -1.927,-6.402 -4.208,-8.682 -0.55,-0.55 -1.142,-1.056 -1.773,-1.514 l 20.355,-14.228 c 1.998,2.146 3.745,4.432 5.179,6.89 1.434,2.461 2.569,5.119 3.345,8.013 M -12.68,34.445 -9.871,9.742 c 1.921,0.92 4.073,1.436 6.346,1.436 2.046,0 3.997,-0.419 5.768,-1.175 l 2.883,24.476 c -2.957,0.774 -5.903,1.153 -8.841,1.147 -2.955,-0.006 -5.944,-0.403 -8.965,-1.181 m -20.33,-63.426 20.596,13.741 c -0.532,0.405 -1.036,0.845 -1.509,1.318 -2.452,2.452 -4.043,5.768 -4.277,9.452 l -22.967,-9.52 c 0.746,-2.76 1.816,-5.371 3.176,-7.85 1.378,-2.516 3.052,-4.89 4.981,-7.141 m 29.293,7.899 -27.339,-18.24 -3.312,-2.21 -2.8,2.799 c -3.747,3.743 -6.9,7.796 -9.327,12.223 -2.459,4.487 -4.178,9.372 -5.025,14.722 l -0.594,3.762 3.518,1.458 29.429,12.198 -3.608,31.737 -0.434,3.813 3.642,1.293 c 5.257,1.865 10.542,2.822 15.852,2.833 5.322,0.011 10.59,-0.93 15.799,-2.861 L 15.679,41.112 15.234,37.339 11.44,5.116 41.403,-7.343 l 3.512,-1.461 -0.569,-3.74 c -0.855,-5.609 -2.703,-10.594 -5.325,-15.09 -2.587,-4.435 -5.901,-8.348 -9.738,-11.885 l -2.857,-2.633 -3.197,2.235 z" /></g><g
           transform="translate(567.3271,675.186)"
           id="g80"><path
             id="path82"
             style="fill:#cccccc;fill-opacity:1;fill-rule:evenodd;stroke:none"
             d="m 0,0 c 5.422,0 9.845,4.422 9.845,9.845 0,5.422 -4.423,9.844 -9.845,9.844 -5.423,0 -9.846,-4.422 -9.846,-9.844 C -9.846,4.422 -5.423,0 0,0" /></g><g
           transform="translate(562.4053,582.6138)"
           id="g84"><path
             id="path86"
             style="fill:#ffffff;fill-opacity:1;fill-rule:evenodd;stroke:none"
             d="m 0,0 c 9.289,6.016 19.946,6.289 32.219,-0.224 -3.053,-20.069 14.678,-29.721 32.666,-27.296 7.104,-11.254 16.21,-28.702 2.908,-39.378 -5.15,-4.959 -17.424,-10.566 -25.747,-8.342 -10.111,2.702 -11.881,22.728 -12.066,31.387 -0.48,2.597 -1.939,4.766 -6.264,5.37 -13.124,0.215 -35.632,1.128 -32.666,19.912 C -8.431,-12.38 -6.492,-6.19 0,0" /></g><g
           transform="translate(562.4053,582.6138)"
           id="g88"><path
             id="path90"
             style="fill:#cccccc;fill-opacity:1;fill-rule:evenodd;stroke:none"
             d="M 0,0 C 5.512,3.57 11.505,5.118 18.032,4.425 11.113,-2.803 4.811,-11.2 4.811,-21.813 c 0,-8.458 1.971,-12.997 3.995,-15.594 -10.358,1.719 -19.737,6.293 -17.756,18.836 C -8.431,-12.38 -6.492,-6.19 0,0" /></g><g
           transform="translate(737.4814,473.8213)"
           id="g92"><path
             id="path94"
             style="fill:#cccccc;fill-opacity:1;fill-rule:evenodd;stroke:none"
             d="m 0,0 c 42.392,0 76.967,34.575 76.967,76.967 0,42.391 -34.575,76.966 -76.967,76.966 -42.392,0 -76.966,-34.575 -76.966,-76.966 C -76.966,34.575 -42.392,0 0,0" /></g><g
           transform="translate(771.0293,620.0757)"
           id="g96"><path
             id="path98"
             style="fill:#ffffff;fill-opacity:1;fill-rule:evenodd;stroke:none"
             d="m 0,0 c 25.699,-12.466 43.418,-38.807 43.418,-69.288 0,-42.506 -34.459,-76.965 -76.966,-76.965 -3.023,0 -6.004,0.179 -8.936,0.518 -25.7,12.467 -43.418,38.807 -43.418,69.288 0,42.507 34.459,76.966 76.965,76.966 C -5.913,0.519 -2.933,0.339 0,0" /></g><g
           transform="translate(788.4697,601.7759)"
           id="g100"><path
             id="path102"
             style="fill:#00161e;fill-opacity:1;fill-rule:evenodd;stroke:none"
             d="m 0,0 c -13.049,13.048 -31.076,21.12 -50.988,21.12 -19.912,0 -37.94,-8.072 -50.988,-21.12 -13.048,-13.048 -21.12,-31.076 -21.12,-50.988 0,-19.912 8.072,-37.939 21.12,-50.988 13.048,-13.048 31.076,-21.119 50.988,-21.119 19.912,0 37.939,8.071 50.988,21.119 13.048,13.049 21.119,31.077 21.119,50.988 C 21.119,-31.076 13.048,-13.048 0,0 m -50.988,30.837 c 22.594,0 43.051,-9.159 57.859,-23.966 14.807,-14.808 23.966,-35.264 23.966,-57.859 0,-22.595 -9.159,-43.051 -23.966,-57.858 -14.808,-14.808 -35.265,-23.967 -57.859,-23.967 -22.595,0 -43.052,9.159 -57.859,23.967 -14.807,14.807 -23.966,35.263 -23.966,57.858 0,22.595 9.159,43.051 23.966,57.859 14.807,14.807 35.264,23.966 57.859,23.966" /></g><g
           transform="translate(749.5635,523.6592)"
           id="g104"><path
             id="path106"
             style="fill:#00161e;fill-opacity:1;fill-rule:evenodd;stroke:none"
             d="m 0,0 c 10.475,0 19.019,8.543 19.019,19.018 0,10.474 -8.544,19.018 -19.019,19.018 -10.475,0 -19.018,-8.544 -19.018,-19.018 C -19.018,8.543 -10.475,0 0,0" /></g><g
           transform="translate(548.5332,495.5781)"
           id="g108"><path
             id="path110"
             style="fill:#ffffff;fill-opacity:1;fill-rule:evenodd;stroke:none"
             d="M 0,0 C -6.376,13.001 -0.954,28.833 7.606,45.42 14.318,41.227 21.479,39.275 28.751,39.715 19.503,26.812 9.248,12.903 0,0" /></g><g
           transform="translate(548.5332,495.5781)"
           id="g112"><path
             id="path114"
             style="fill:#cccccc;fill-opacity:1;fill-rule:evenodd;stroke:none"
             d="M 0,0 C -6.376,13.001 -0.954,28.833 7.606,45.42 11.28,43.125 15.088,41.502 18.975,40.574 8.807,33.061 3.46,18.219 2.927,4.072 1.942,2.705 0.965,1.348 0,0" /></g><g
           transform="translate(593.1689,503.9692)"
           id="g116"><path
             id="path118"
             style="fill:#ffffff;fill-opacity:1;fill-rule:evenodd;stroke:none"
             d="M 0,0 C -7.963,-8.969 -24.857,-18.773 -36.693,-12.753 -27.222,0.075 -17.75,12.902 -8.278,25.73 -8.704,15.879 -5.54,7.464 0,0" /></g><g
           transform="translate(825.1875,593.0176)"
           id="g120"><path
             id="path122"
             style="fill:#00161e;fill-opacity:1;fill-rule:evenodd;stroke:none"
             d="M 0,0 C 13.729,12.742 43.817,-3.448 42.734,-23.94 29.766,2.09 8.592,-7.462 0,0" /></g><g
           transform="translate(601.2754,771.4951)"
           id="g124"><path
             id="path126"
             style="fill:#00161e;fill-opacity:1;fill-rule:evenodd;stroke:none"
             d="M 0,0 C 14.777,11.509 3.622,43.804 -16.778,46.02 6.836,29.045 -5.988,9.676 0,0" /></g><g
           transform="translate(648.0977,371.1787)"
           id="g128"><path
             id="path130"
             style="fill:#c4af9d;fill-opacity:1;fill-rule:evenodd;stroke:none"
             d="m 0,0 c -41.388,-3.588 -57.891,-80.016 -50.118,-99.788 24.35,-70.23 175.491,-24.528 139.614,32.666 -21.78,26.507 -51.443,-15.843 -74.281,0 3.43,11.635 6.861,23.269 10.292,34.903 C 29.278,-11.29 16.869,1.151 0,0" /></g><g
           transform="translate(636.6494,373.415)"
           id="g132"><path
             id="path134"
             style="fill:#00161e;fill-opacity:1;fill-rule:evenodd;stroke:none"
             d="m 0,0 c 3.497,1.374 7.175,2.27 11.03,2.604 h 0.095 c 2.86,0.195 5.652,0.042 8.328,-0.441 6.35,-1.143 11.842,-4.151 15.897,-8.767 4.006,-4.561 6.547,-10.624 7.046,-17.924 0.225,-3.313 0.019,-6.915 -0.677,-10.781 l -0.06,-0.328 -0.054,-0.184 -9.19,-31.164 c 7.775,-3.091 17.195,0.822 26.628,4.744 15.757,6.55 33.334,13.56 45.641,-4.042 10.818,-14.819 7.585,-32.965 -3.952,-46.09 -7.484,-8.514 -18.542,-15.69 -31.277,-20.899 -12.542,-5.131 -26.759,-8.369 -40.779,-9.091 -31.132,-1.605 -61.511,9.074 -71.853,38.578 l -0.011,-0.005 c -0.999,2.543 -1.657,5.726 -1.973,9.375 -1.121,12.933 1.93,33.193 9.203,51.688 C -28.523,-23.818 -16.597,-6.524 0,0 M 11.866,-7.076 C 8.932,-7.33 6.153,-8.004 3.53,-9.035 c -13.703,-5.387 -23.887,-20.524 -30.454,-37.222 -6.728,-17.111 -9.57,-35.636 -8.557,-47.322 0.24,-2.767 0.684,-5.039 1.329,-6.681 l 0.056,-0.189 c 8.579,-24.741 35.016,-33.64 62.278,-32.235 12.972,0.669 26.089,3.65 37.629,8.371 11.345,4.64 21.122,10.948 27.632,18.355 8.516,9.688 11.159,21.437 3.553,33.772 -7.376,10.884 -21.877,6.123 -34.232,0.986 -25.99,-10.805 -35.777,-9.134 -49.795,7.913 l 9.613,-2.773 9.664,32.774 c 0.497,2.891 0.641,5.602 0.47,8.112 -0.347,5.083 -2.025,9.199 -4.654,12.193 -2.582,2.938 -6.147,4.865 -10.317,5.617 -1.817,0.327 -3.789,0.429 -5.88,0.294 z" /></g><g
           transform="translate(737.5937,304.0566)"
           id="g136"><path
             id="path138"
             style="fill:#00161e;fill-opacity:1;fill-rule:evenodd;stroke:none"
             d="M 0,0 C -3.952,1.015 -5.443,4.267 -9.396,5.281 -18.794,-2.865 -24.536,-6.068 -37.588,-10.963 -25.499,-11.529 -11.086,-7.125 0,0" /></g><g
           transform="translate(302.4521,550.5654)"
           id="g140"><path
             id="path142"
             style="fill:#ff6b01;fill-opacity:1;fill-rule:evenodd;stroke:none"
             d="m 0,0 c 1.612,-7.318 3.875,-14.47 6.792,-21.312 6.639,-10.274 16.536,-14.52 26.401,-13.879 62.662,4.065 -4.022,95.357 74.728,106.955 v -441.216 c -19.662,-6.45 -54.25,-21.086 -49.222,-0.895 -96.418,3.006 -165.495,92.493 -165.568,163.778 -8.176,1.948 -16.395,3.817 -16.11,21.479 C -115.274,-113.091 -60.947,-54.902 0,0 m 107.921,90.559 -0.291,-0.061 c 0.012,-6.245 0.083,-12.49 0.291,-18.734 z" /></g><g
           transform="translate(217.1265,270.5186)"
           id="g144"><path
             id="path146"
             style="fill:#ff9346;fill-opacity:1;fill-rule:evenodd;stroke:none"
             d="m 0,0 c -3.039,43.698 3.565,90.184 18.842,123.994 22.431,49.644 -41.075,-3.701 22.911,91.9 10.033,14.99 23.355,29.031 36.157,41.833 3.531,3.531 7.122,7.332 10.394,11.261 -1.163,3.631 -2.156,7.323 -2.978,11.059 C 24.378,225.145 -29.948,166.956 -37.653,94.957 -37.938,77.295 -29.72,75.426 -21.543,73.478 -21.519,49.715 -13.817,23.932 0,0" /></g><g
           transform="translate(233.8857,246.1523)"
           id="g148"><path
             id="path150"
             style="fill:#cf5601;fill-opacity:1;fill-rule:evenodd;stroke:none"
             d="m 0,0 c 28.77,-11.514 60.01,-13.574 89.341,3.095 40.174,22.832 51.677,80.556 51.431,110.449 9.589,-3.028 15.331,-77.256 28.528,-103.52 2.616,-5.206 5.06,-11.673 7.188,-18.919 v -56.144 c -19.662,-6.45 -54.25,-21.086 -49.223,-0.895 C 74.28,-64.282 29.558,-36.512 0,0" /></g><g
           transform="translate(297.6211,546.1914)"
           id="g152"><path
             id="path154"
             style="fill:#cf5601;fill-opacity:1;fill-rule:evenodd;stroke:none"
             d="m 0,0 c 1.605,1.46 3.215,2.918 4.831,4.374 1.612,-7.318 3.875,-14.47 6.792,-21.312 6.639,-10.274 16.536,-14.52 26.401,-13.879 62.663,4.065 -4.022,95.357 74.728,106.955 v -441.216 c -9.986,-3.276 -23.821,-8.662 -34.362,-10.526 -0.19,94.618 -1.771,189.342 -1.771,283.76 0,22.115 3.32,50.629 -19.689,50.629 -57.691,0 -41.201,36.249 -54.807,36.588 z m 112.752,94.933 -0.291,-0.061 c 0.012,-6.245 0.083,-12.49 0.291,-18.734 z" /></g><g
           transform="translate(401.7603,173.0498)"
           id="g156"><path
             id="path158"
             style="fill:#00161e;fill-opacity:1;fill-rule:evenodd;stroke:none"
             d="m 0,0 c -13.22,-4.574 -28.514,-9.601 -37.273,-7.42 -5.31,1.321 -8.586,4.399 -8.757,10.002 -44.259,2.806 -82.604,23.228 -111.142,51.457 -32.619,32.267 -52.489,74.867 -53.778,113.087 -45.761,12.287 17.45,114.993 26.277,127.103 22.442,30.793 51.465,59.279 82.119,86.893 l 6.197,5.582 1.794,-8.144 c 0.81,-3.678 1.741,-7.177 2.792,-10.474 1.017,-3.193 2.198,-6.392 3.544,-9.582 2.674,-4.032 5.917,-6.925 9.447,-8.781 3.854,-2.026 8.103,-2.835 12.361,-2.559 25.188,1.634 25.883,20.872 26.638,41.809 0.946,26.211 1.976,54.656 39.781,63.605 v -10.1 c -28.446,-8.272 -29.311,-31.961 -30.101,-53.847 -0.92,-25.507 -1.766,-48.945 -35.711,-51.147 -5.979,-0.388 -11.987,0.77 -17.485,3.66 -5.048,2.654 -9.626,6.753 -13.301,12.439 l -0.211,0.328 -0.168,0.394 c -1.484,3.482 -2.824,7.109 -4.019,10.858 -0.358,1.124 -0.698,2.241 -1.021,3.351 -28.073,-25.593 -54.393,-51.928 -74.837,-79.979 -13.348,-19.496 -60.854,-96.626 -31.218,-111.646 1.912,-0.97 0.79,11.297 8.521,25.42 -4.027,-47.069 4.141,-96.777 49.212,-141.361 28.085,-27.781 66.098,-47.575 109.862,-48.939 l 6.021,-0.188 -1.446,-5.81 c -0.64,-2.57 -0.177,-3.738 0.944,-4.016 6.521,-1.624 21.586,3.605 34.045,7.93 L 0,10.241 Z" /></g><g
           transform="translate(743.377,546.3794)"
           id="g160"><path
             id="path162"
             style="fill:#ffffff;fill-opacity:1;fill-rule:evenodd;stroke:none"
             d="M 0,0 C 2.711,0 4.922,2.211 4.922,4.922 4.922,7.633 2.711,9.844 0,9.844 -2.712,9.844 -4.923,7.633 -4.923,4.922 -4.923,2.211 -2.712,0 0,0" /></g><g
           transform="translate(401.7603,620.5864)"
           id="g164"><path
             id="path166"
             style="fill:#f2d8c1;fill-opacity:1;fill-rule:evenodd;stroke:none"
             d="m 0,0 c -65.064,-16.918 -5.918,-101.308 -66.115,-105.212 -9.865,-0.641 -19.762,3.605 -26.402,13.879 -26.702,62.656 0.732,150.992 92.517,159.64 z" /></g><g
           transform="translate(345.1963,516.9111)"
           id="g168"><path
             id="path170"
             style="fill:#f9ede2;fill-opacity:1;fill-rule:evenodd;stroke:none"
             d="m 0,0 c -2.796,-0.776 -5.955,-1.304 -9.551,-1.537 -9.866,-0.64 -19.762,3.605 -26.402,13.879 -26.702,62.657 0.732,150.992 92.517,159.64 V 141.861 C 47.208,139.465 36.311,137.995 26.065,133.356 -22.115,111.543 -15.551,50.066 0,0" /></g><g
           transform="translate(401.7603,615.5337)"
           id="g172"><path
             id="path174"
             style="fill:#00161e;fill-opacity:1;fill-rule:evenodd;stroke:none"
             d="m 0,0 c -28.451,-8.271 -29.311,-31.965 -30.101,-53.853 -0.92,-25.507 -1.766,-48.945 -35.711,-51.147 -5.979,-0.388 -11.987,0.77 -17.485,3.66 -19.76,10.388 -22.879,38.505 -23.683,58.002 -0.931,22.526 3.956,45.377 14.99,65.134 11.093,19.864 28.36,36.584 52.13,46.714 11.703,4.987 24.978,8.367 39.86,9.724 L 0,68.503 C -13.47,67.192 -25.479,64.1 -36.064,59.589 -57.72,50.36 -73.438,35.149 -83.524,17.089 -93.67,-1.076 -98.16,-22.146 -97.3,-42.958 c 0.613,-14.859 3.739,-42.033 18.52,-49.803 3.854,-2.026 8.103,-2.835 12.361,-2.559 25.188,1.634 25.883,20.872 26.638,41.809 C -38.835,-27.3 -37.805,1.146 0,10.094 Z" /></g><g
           transform="translate(382.4146,172.0156)"
           id="g176"><path
             id="path178"
             style="fill:#c4af9d;fill-opacity:1;fill-rule:evenodd;stroke:none"
             d="M 0,0 V -0.001 C 0.483,-21.362 7.71,-28.244 19.346,-39.86 v -38.569 c -43.087,-22.43 -67.242,1.461 -75,32.95 -4.299,17.446 -2.378,39.555 0.046,58.548 10.981,-2.804 22.453,-4.496 34.344,-4.866 C -24.229,-3.708 -13.409,-3.498 0,0" /></g><g
           transform="translate(387.0078,173.5342)"
           id="g180"><path
             id="path182"
             style="fill:#00161e;fill-opacity:1;fill-rule:evenodd;stroke:none"
             d="m 0,0 v -0.001 l 0.231,-0.691 0.017,-0.733 c 0.389,-17.251 5.736,-24.189 14.504,-33.093 v -13.736 c -1.377,1.406 -2.694,2.72 -3.956,3.979 -11.063,11.039 -18.298,18.261 -19.914,36.755 -5.152,-0.986 -9.802,-1.281 -13.405,-0.383 -5.307,1.322 -8.581,4.398 -8.754,9.996 -4.259,0.268 -8.44,0.697 -12.539,1.278 -4.168,0.591 -8.248,1.329 -12.241,2.205 -0.911,-7.799 -1.653,-15.974 -1.848,-23.994 -0.236,-9.684 0.326,-19.146 2.365,-27.423 1.953,-7.927 4.983,-15.297 9.131,-21.399 4.32,-6.358 9.88,-11.357 16.721,-14.15 6.869,-2.805 15.14,-3.425 24.89,-1.023 5.979,1.473 12.49,4.063 19.55,7.949 v -6.945 c 0,-1.293 0.142,-2.554 0.409,-3.769 -6.247,-3.11 -12.127,-5.291 -17.643,-6.65 -11.901,-2.932 -22.171,-2.104 -30.851,1.441 -8.709,3.556 -15.712,9.81 -21.086,17.719 -4.832,7.11 -8.326,15.544 -10.536,24.512 -2.258,9.17 -2.886,19.486 -2.63,29.967 0.251,10.282 1.352,20.715 2.581,30.347 l 0.696,5.455 5.302,-1.355 c 5.446,-1.391 10.958,-2.494 16.518,-3.282 11.899,-1.686 21.653,-1.311 33.524,-0.968 L -21.15,5.526 c -0.64,-2.569 -0.178,-3.736 0.942,-4.014 3.119,-0.778 8.394,0.091 14.4,1.657 l 4.371,1.142 z" /></g><g
           transform="translate(198.7881,316.5117)"
           id="g184"><path
             id="path186"
             style="fill:#f2d8c1;fill-opacity:1;fill-rule:evenodd;stroke:none"
             d="m 0,0 -0.001,0.001 c -38.686,-14.594 -52.704,46.41 -85.541,13.163 -9.44,-11.18 -9.424,-31.097 -1.792,-43.26 20.028,-31.919 71.952,-33.76 109.791,-22.706 l 0.004,0.012 C 11.695,-35.862 4.011,-17.787 0,0" /></g><g
           transform="translate(198.7881,316.5117)"
           id="g188"><path
             id="path190"
             style="fill:#f9ede2;fill-opacity:1;fill-rule:evenodd;stroke:none"
             d="m 0,0 -0.001,0.001 c -38.686,-14.594 -52.704,46.41 -85.541,13.163 -9.44,-11.18 -9.424,-31.097 -1.792,-43.26 5.099,-8.126 12.268,-14.299 20.743,-18.809 8.266,20.888 49.403,16.294 77.904,16.342 C 6.264,-21.818 2.448,-10.855 0,0" /></g><g
           transform="translate(195.3037,310.3623)"
           id="g192"><path
             id="path194"
             style="fill:#00161e;fill-opacity:1;fill-rule:evenodd;stroke:none"
             d="m 0,0 c -17.677,-4.311 -30.16,5.109 -41.768,13.874 -11.641,8.789 -22.184,16.745 -36.687,2.188 -3.809,-4.581 -5.766,-10.997 -6.04,-17.619 -0.297,-7.153 1.356,-14.408 4.745,-19.808 8.304,-13.234 22.819,-20.856 39.515,-24.308 18.695,-3.867 40.009,-2.536 58.66,2.02 -4.066,6.91 -7.646,13.999 -10.698,21.174 C 4.562,-15.039 1.972,-7.513 0,0 M 5.286,10.649 5.288,10.648 7.649,9.704 8.211,7.213 c 1.939,-8.6 4.775,-17.29 8.436,-25.896 3.651,-8.582 8.142,-17.093 13.398,-25.357 l 1.274,-2.003 -0.819,-2.25 -0.004,-0.011 -0.839,-2.306 -2.368,-0.693 c -21.348,-6.236 -47.083,-8.488 -69.46,-3.86 -19.138,3.957 -35.914,12.915 -45.779,28.636 -4.43,7.059 -6.599,16.338 -6.225,25.35 0.361,8.713 3.083,17.307 8.417,23.622 l 0.246,0.266 c 20.565,20.821 34.357,10.409 49.59,-1.093 10.668,-8.055 22.214,-16.771 37.696,-10.931 l 1.759,0.664 z" /></g><g
           transform="translate(318.5283,572.0986)"
           id="g196"><path
             id="path198"
             style="fill:#00161e;fill-opacity:1;fill-rule:evenodd;stroke:none"
             d="m 0,0 c 1.105,-25.44 6.322,-50.202 24.866,-50.563 -3.217,-2.075 -6.434,-4.15 -9.651,-6.225 -2.965,2.196 -5.928,4.391 -8.893,6.586 C -1.809,-34.481 -3.301,-17.376 0,0" /></g><g
           transform="translate(113.2466,329.6758)"
           id="g200"><path
             id="path202"
             style="fill:#00161e;fill-opacity:1;fill-rule:evenodd;stroke:none"
             d="M 0,0 C -0.277,-3.854 -3.462,-7.595 -3.739,-11.448 9.53,-8.604 29.885,-11.73 36.917,-27.072 33.121,-5.128 13.293,-0.355 0,0" /></g><g
           transform="translate(398.8027,93.2637)"
           id="g204"><path
             id="path206"
             style="fill:#00161e;fill-opacity:1;fill-rule:evenodd;stroke:none"
             d="M 0,0 C -3.813,-0.618 -7.257,-4.123 -11.071,-4.741 -9.417,8.728 -14.338,28.725 -30.244,34.366 -8.048,32.535 -1.534,13.209 0,0" /></g><g
           transform="translate(419.4355,925.5503)"
           id="g208"><path
             id="path210"
             style="fill:#ff6b01;fill-opacity:1;fill-rule:evenodd;stroke:none"
             d="m 0,0 v 0 c 9.722,0 17.675,-7.954 17.675,-17.675 v -815.75 c 0,-9.722 -7.953,-17.676 -17.675,-17.676 -9.722,0 -17.675,7.954 -17.675,17.676 v 815.75 C -17.675,-7.954 -9.722,0 0,0" /></g></g></g></g></svg>